<svg xmlns="http://www.w3.org/2000/svg" viewBox="0 0 1000 500">
  <defs>
    <style>
      .a {
        fill: #73737f;
      }

      .b {
        fill: #1a1a1e;
      }
    </style>
  </defs>
  <title>btn_resize_up</title>
  <path class="a" d="M529.5,29H373.2c-33.1,0-33.4,51.3-.4,51.3h94.5L356.6,191.1c-23.4,23.4,13,59.5,36.5,36.1L503.7,116.6q0,47.1,0,94.2c0,33.1,51.3,33.4,51.3.4q0-78.1,0-156.3A25.9,25.9,0,0,0,529.5,29ZM80.5,529H236.8c33.1,0,33.4-51.3.4-51.3H142.7L253.4,367c23.4-23.4-13-59.5-36.5-36.1L106.3,441.4q0-47.1,0-94.1c0-33.1-51.3-33.4-51.3-.4q0,78.1,0,156.3A25.9,25.9,0,0,0,80.5,529ZM237.1,29H80.9A25.9,25.9,0,0,0,55,54.5q0,78.1,0,156.3c0,33.1,51.3,33.4,51.3.4q0-47.3,0-94.5L217.1,227.4c23.4,23.4,59.5-13,36.1-36.5L142.6,80.3h94.1C269.9,80.4,270.2,29,237.1,29ZM372.9,529H529.2A25.9,25.9,0,0,0,555,503.5V347.2c0-33.1-51.3-33.4-51.3-.4v94.5L393,330.7c-23.4-23.4-59.5,13-36.1,36.5L467.4,477.7H373.2C340.1,477.7,339.8,529,372.9,529Z" transform="translate(-55 -29)"/>
  <path class="b" d="M1029.5,29H873.2c-33.1,0-33.4,51.3-.4,51.3h94.5L856.6,191.1c-23.4,23.4,13,59.5,36.5,36.1l110.5-110.5q0,47.1,0,94.2c0,33.1,51.3,33.4,51.3.4q0-78.1,0-156.3A25.9,25.9,0,0,0,1029.5,29Zm-449,500H736.8c33.1,0,33.4-51.3.4-51.3H642.7L753.4,367c23.4-23.4-13-59.5-36.5-36.1L606.3,441.4q0-47.1,0-94.1c0-33.1-51.3-33.4-51.3-.4q0,78.1,0,156.3A25.9,25.9,0,0,0,580.5,529ZM737.1,29H580.9A25.9,25.9,0,0,0,555,54.5q0,78.1,0,156.3c0,33.1,51.3,33.4,51.3.4q0-47.3,0-94.5L717.1,227.4c23.4,23.4,59.5-13,36.1-36.5L642.6,80.3h94.1C769.9,80.4,770.2,29,737.1,29ZM872.9,529h156.3a25.9,25.9,0,0,0,25.8-25.5V347.2c0-33.1-51.3-33.4-51.3-.4v94.5L893,330.7c-23.4-23.4-59.5,13-36.1,36.5L967.4,477.7H873.2C840.1,477.7,839.8,529,872.9,529Z" transform="translate(-55 -29)"/>
</svg>
