<svg xmlns="http://www.w3.org/2000/svg" viewBox="0 0 1000 196.9">
  <defs>
    <style>
      .a {
        fill: #9e9ea9;
      }

      .b {
        fill: #2c6fb3;
      }
    </style>
  </defs>
  <title>btn_link_sprite</title>
  <g>
    <path class="a" d="M325.8,141.4h42.3c1.8,0,2.6.3,2.8,2.4,2.4,23.4-1.9,45.3-14.8,65.1-14.3,21.7-34.2,36.1-59.7,42.3-12.5,3-25.2,2.6-37.9,2.6-28.5.1-57,.1-85.5,0-14.2-.1-28.5,1.1-42.6-2.1-23.6-5.3-43-17.3-57.7-36.8a95,95,0,0,1-19.2-48.2A100.6,100.6,0,0,1,58.4,123,101.8,101.8,0,0,1,80.3,87c7.1-7.7,15.7-13.6,25-18.6,16.9-9,35-11.6,54-11.3,21.3.3,42.7,0,64.1-.1h13.3c-3.9,4.3-7.2,7.7-10.2,11.4a129,129,0,0,0-18.6,30c-1.1,2.3-2.5,2.8-4.9,2.8-18.5,0-37-.4-55.5.3s-33.3,9.7-42.7,25.9c-13.2,22.5-8.6,52.2,10.5,68.8,11.5,10,25,13.6,40.1,13.4,26.8-.3,53.6-.1,80.4-.1,13.9,0,27.8.1,41.7-.1,22.5-.5,44.2-18.8,48.7-40.7A65.3,65.3,0,0,0,325.8,141.4Z" transform="translate(-53 -57)"/>
    <path class="a" d="M279.9,169.3H235c-.2-5.3-.7-10.6-.6-15.9.2-19.4,5.6-37.3,16.7-53.1,14.4-20.8,33.8-34.6,58.7-40.5,10.7-2.5,21.5-2.6,32.3-2.6h70.3c16.9.1,33.7-.3,50.6.5s34.2,7.3,49.1,17.7c11.6,8.1,20.5,18.4,27.7,30.4a92.3,92.3,0,0,1,12.1,34.8,104.3,104.3,0,0,1-1.3,37.2A98.1,98.1,0,0,1,534.7,213c-10.3,14.8-24,25.2-40.1,32.5a88.5,88.5,0,0,1-36.4,8.1H369.5l3.8-4.3a124.7,124.7,0,0,0,24.4-36c1.3-3,3.1-4,6.5-4,18.2.2,36.4.7,54.5-.2,19.6-.9,34.5-10.6,43.8-28.1,12.3-23.1,6.5-54.5-16.1-70.2a53.7,53.7,0,0,0-31.5-9.8H380.2c-16.7,0-33.5-.1-50.2.2-23.6.3-44.2,17.2-49.7,40.1a58.3,58.3,0,0,0-.4,25.8A17.4,17.4,0,0,1,279.9,169.3Z" transform="translate(-53 -57)"/>
  </g>
  <g>
    <path class="b" d="M825.8,141.4h42.3c1.8,0,2.6.3,2.8,2.4,2.4,23.4-1.9,45.3-14.8,65.1-14.3,21.7-34.2,36.1-59.7,42.3-12.5,3-25.2,2.6-37.9,2.6-28.5.1-57,.1-85.5,0-14.2-.1-28.5,1.1-42.6-2.1-23.6-5.3-43-17.3-57.7-36.8a95,95,0,0,1-19.2-48.2,100.6,100.6,0,0,1,4.8-43.7,101.8,101.8,0,0,1,21.9-36c7.1-7.7,15.7-13.6,25-18.6,16.9-9,35-11.6,54-11.3,21.3.3,42.7,0,64.1-.1h13.3c-3.9,4.3-7.2,7.7-10.2,11.4a129,129,0,0,0-18.6,30c-1.1,2.3-2.5,2.8-4.9,2.8-18.5,0-37-.4-55.5.3s-33.3,9.7-42.7,25.9c-13.2,22.5-8.6,52.2,10.5,68.8,11.5,10,25,13.6,40.1,13.4,26.8-.3,53.6-.1,80.4-.1,13.9,0,27.8.1,41.7-.1,22.5-.5,44.2-18.8,48.7-40.7A65.3,65.3,0,0,0,825.8,141.4Z" transform="translate(-53 -57)"/>
    <path class="b" d="M779.9,169.3H735c-.2-5.3-.7-10.6-.6-15.9.2-19.4,5.6-37.3,16.7-53.1,14.4-20.8,33.8-34.6,58.7-40.5,10.7-2.5,21.5-2.6,32.3-2.6h70.3c16.9.1,33.7-.3,50.6.5s34.2,7.3,49.1,17.7c11.6,8.1,20.5,18.4,27.7,30.4a92.3,92.3,0,0,1,12.1,34.8,104.3,104.3,0,0,1-1.3,37.2,98.1,98.1,0,0,1-15.9,35.4c-10.3,14.8-24,25.2-40.1,32.5a88.5,88.5,0,0,1-36.4,8.1H869.5l3.8-4.3a124.7,124.7,0,0,0,24.4-36c1.3-3,3.1-4,6.5-4,18.2.2,36.4.7,54.5-.2,19.6-.9,34.5-10.6,43.8-28.1,12.3-23.1,6.5-54.5-16.1-70.2a53.7,53.7,0,0,0-31.5-9.8H880.2c-16.7,0-33.5-.1-50.2.2-23.6.3-44.2,17.2-49.7,40.1a58.3,58.3,0,0,0-.4,25.8A17.4,17.4,0,0,1,779.9,169.3Z" transform="translate(-53 -57)"/>
  </g>
</svg>
