<svg xmlns="http://www.w3.org/2000/svg" viewBox="0 0 1000 500">
  <defs>
    <style>
      .a {
        fill: #cda200;
      }

      .b {
        fill: #fff;
      }

      .c {
        fill: #73737f;
      }

      .d {
        fill: #d6d6de;
      }
    </style>
  </defs>
  <title>btn_mail_sprite</title>
  <rect class="a" width="500" height="500"/>
  <g>
    <path class="b" d="M315.7,280l-1.2-1.3-34,29.7-34-29.7-15.1,16.8L154.1,382c-.8.9-1.4,1.9-2.1,2.8H408.9c-3.7-4.3-7.2-8.6-11-12.8Z" transform="translate(-30 -29)"/>
    <path class="b" d="M279,284.1l1.5,1.2,14.8-12.9,108.9-95.3a39.8,39.8,0,0,0,3-3.1H153.7l2,2.1Z" transform="translate(-30 -29)"/>
    <polygon class="b" points="391 342.6 391 342.6 391 342.6 391 342.6"/>
    <polygon class="b" points="297.7 238.2 299.2 240 353.1 300.3 391 342.6 391 156.5 297.7 238.2"/>
    <polygon class="b" points="203.3 238.2 110 156.5 110 342.6 110.8 341.9 190.3 252.9 203.3 238.2"/>
  </g>
  <rect class="c" x="500" width="500" height="500"/>
  <g>
    <path class="d" d="M815.7,280l-1.2-1.3-34,29.7-34-29.7-15.1,16.8L654.1,382c-.8.9-1.4,1.9-2.1,2.8H908.9c-3.7-4.3-7.2-8.6-11-12.8Z" transform="translate(-30 -29)"/>
    <path class="d" d="M779,284.1l1.5,1.2,14.8-12.9,108.9-95.3a39.8,39.8,0,0,0,3-3.1H653.7l2,2.1Z" transform="translate(-30 -29)"/>
    <polygon class="d" points="891 342.6 891 342.6 891 342.6 891 342.6"/>
    <polygon class="d" points="797.7 238.2 799.2 240 853.1 300.3 891 342.6 891 156.5 797.7 238.2"/>
    <polygon class="d" points="703.3 238.2 610 156.5 610 342.6 610.8 341.9 690.3 252.9 703.3 238.2"/>
  </g>
</svg>
