<svg xmlns="http://www.w3.org/2000/svg" viewBox="0 0 1000 500">
  <defs>
    <style>
      .a {
        fill: #56a3d9;
      }

      .b {
        fill: #fff;
      }

      .c {
        fill: #73737f;
      }

      .d {
        fill: #d6d6de;
      }
    </style>
  </defs>
  <title>btn_tw_sprite</title>
  <rect class="a" width="500" height="500"/>
  <path class="b" d="M444.8,211.7c-4.4,2.4-17.4,7.2-29.6,8.4,7.8-4.2,19.4-18,22.2-29-7.5,4.8-24.8,11.8-33.3,11.8h0a53.3,53.3,0,0,0-90.6,48.8h0c-40-1-86.7-21.1-113-55.3-16.2,28-2.2,59.1,16.2,70.5-6.3.5-17.9-.7-23.3-6-.4,18.6,8.6,43.2,41.2,52.1-6.3,3.4-17.4,2.4-22.2,1.7,1.7,15.7,23.7,36.2,47.7,36.2-8.6,9.9-37.8,27.9-73.9,22.1a160.2,160.2,0,0,0,83.5,23.6c86.1,0,152.9-69.8,149.3-155.8v-.3c0-.2,0-.5,0-.7s0-.5,0-.8A91.8,91.8,0,0,0,444.8,211.7Z" transform="translate(-59 -36)"/>
  <rect class="c" x="500" width="500" height="500"/>
  <path class="d" d="M944.8,211.7c-4.4,2.4-17.4,7.2-29.6,8.4,7.8-4.2,19.4-18,22.2-29-7.5,4.8-24.8,11.8-33.3,11.8h0a53.3,53.3,0,0,0-90.6,48.8h0c-40-1-86.7-21.1-113-55.3-16.2,28-2.2,59.1,16.2,70.5-6.3.5-17.9-.7-23.3-6-.4,18.6,8.6,43.2,41.2,52.1-6.3,3.4-17.4,2.4-22.2,1.7,1.7,15.7,23.7,36.2,47.7,36.2-8.6,9.9-37.8,27.9-73.9,22.1a160.2,160.2,0,0,0,83.5,23.6c86.1,0,152.9-69.8,149.3-155.8v-.3c0-.2,0-.5,0-.7s0-.5,0-.8A91.8,91.8,0,0,0,944.8,211.7Z" transform="translate(-59 -36)"/>
</svg>
