<svg xmlns="http://www.w3.org/2000/svg" viewBox="0 0 1000 500">
  <defs>
    <style>
      .a {
        fill: #73737f;
      }

      .b {
        fill: #1a1a1e;
      }
    </style>
  </defs>
  <title>btn_resize_down</title>
  <path class="a" d="M222.3,328.2H66c-33.1,0-33.4,51.3-.4,51.3h94.5L49.4,490.3c-23.4,23.4,13,59.5,36.5,36.1L196.5,415.9q0,47.1,0,94.2c0,33.1,51.3,33.4,51.3.4q0-78.1,0-156.3A25.9,25.9,0,0,0,222.3,328.2Zm137.4-86.5H516c33.1,0,33.4-51.3.4-51.3H421.9L532.6,79.7c23.4-23.4-13-59.5-36.5-36.1L385.6,154.2q0-47.1,0-94.1c0-33.1-51.3-33.4-51.3-.4q0,78.1,0,156.3a25.9,25.9,0,0,0,25.5,25.8Zm156.6,86.5H360.1a25.9,25.9,0,0,0-25.8,25.5q0,78.1,0,156.3c0,33.1,51.3,33.4,51.3.4q0-47.3,0-94.5L496.3,526.6c23.4,23.4,59.5-13,36.1-36.5L421.8,379.6H516c33.1,0,33.4-51.3.4-51.3ZM65.6,241.8H221.9a25.9,25.9,0,0,0,25.8-25.5V60c0-33.1-51.3-33.4-51.3-.4v94.5L85.7,43.4C62.3,20,26.2,56.5,49.6,79.9L160.2,190.5H66C32.9,190.4,32.6,241.8,65.6,241.8Z" transform="translate(-41 -35)"/>
  <path class="b" d="M722.3,328.2H566c-33.1,0-33.4,51.3-.4,51.3h94.5L549.4,490.3c-23.4,23.4,13,59.5,36.5,36.1L696.5,415.9q0,47.1,0,94.2c0,33.1,51.3,33.4,51.3.4q0-78.1,0-156.3A25.9,25.9,0,0,0,722.3,328.2Zm137.4-86.5H1016c33.1,0,33.4-51.3.4-51.3H921.9L1032.6,79.7c23.4-23.4-13-59.5-36.5-36.1L885.6,154.2q0-47.1,0-94.1c0-33.1-51.3-33.4-51.3-.4q0,78.1,0,156.3a25.9,25.9,0,0,0,25.5,25.8Zm156.6,86.5H860.1a25.9,25.9,0,0,0-25.8,25.5q0,78.1,0,156.3c0,33.1,51.3,33.4,51.3.4q0-47.3,0-94.5L996.3,526.6c23.4,23.4,59.5-13,36.1-36.5L921.8,379.6H1016c33.1,0,33.4-51.3.4-51.3ZM565.6,241.8H721.9a25.9,25.9,0,0,0,25.8-25.5V60c0-33.1-51.3-33.4-51.3-.4v94.5L585.7,43.4c-23.4-23.4-59.5,13-36.1,36.5L660.2,190.5H566C532.9,190.4,532.6,241.8,565.6,241.8Z" transform="translate(-41 -35)"/>
</svg>
