<svg xmlns="http://www.w3.org/2000/svg" xmlns:xlink="http://www.w3.org/1999/xlink" viewBox="0 0 1000 500">
  <defs>
    <style>
      .a {
        fill: url(#a);
      }

      .b {
        fill: #fff;
      }

      .c {
        fill: #73737f;
      }

      .d {
        fill: #d6d6de;
      }
    </style>
    <radialGradient id="a" cx="182.2" cy="462.27" r="430.79" gradientTransform="translate(-67.9 -42.1) scale(1.17)" gradientUnits="userSpaceOnUse">
      <stop offset="0" stop-color="#ffd676"/>
      <stop offset="0.25" stop-color="#f2a454"/>
      <stop offset="0.38" stop-color="#f05c3c"/>
      <stop offset="0.7" stop-color="#c22f86"/>
      <stop offset="0.96" stop-color="#6666ad"/>
      <stop offset="0.99" stop-color="#5c6cb2"/>
    </radialGradient>
  </defs>
  <title>btn_inst_sprite</title>
  <rect class="a" width="500" height="500"/>
  <g>
    <polygon class="b" points="250 95.1 250 95.1 250 95.1 250 95.1"/>
    <path class="b" d="M461.9,222.1c-.8-16.5-3.4-27.7-7.2-37.6a79.2,79.2,0,0,0-45.3-45.3c-9.9-3.8-21.1-6.4-37.6-7.2s-21.8-.9-63.9-.9-47.3.2-63.9.9-27.7,3.4-37.6,7.2a79.2,79.2,0,0,0-45.3,45.3c-3.8,9.9-6.4,21.1-7.2,37.6s-.9,21.8-.9,63.9.2,47.3.9,63.9,3.4,27.7,7.2,37.6a79.2,79.2,0,0,0,45.3,45.3c9.9,3.8,21.1,6.4,37.6,7.2s21.8.9,63.9.9,47.3-.2,63.9-.9,27.7-3.4,37.6-7.2a79.2,79.2,0,0,0,45.3-45.3c3.8-9.9,6.4-21.1,7.2-37.6s.9-21.8.9-63.9S462.7,238.7,461.9,222.1ZM434.1,348.6c-.7,15.1-3.2,23.3-5.3,28.8a51.3,51.3,0,0,1-29.4,29.4c-5.5,2.1-13.7,4.6-28.8,5.3s-21.2.9-62.6.9-46.3-.2-62.6-.9-23.3-3.2-28.8-5.3a51.3,51.3,0,0,1-29.4-29.4c-2.1-5.5-4.6-13.7-5.3-28.8s-.9-21.2-.9-62.6.2-46.3.9-62.6,3.2-23.3,5.3-28.8a51.3,51.3,0,0,1,29.4-29.4c5.5-2.1,13.7-4.6,28.8-5.3s21.2-.9,62.6-.9h0c41.4,0,46.3.2,62.6.9s23.3,3.2,28.8,5.3a51.3,51.3,0,0,1,29.4,29.4c2.1,5.5,4.6,13.7,5.3,28.8s.9,21.2.9,62.6S434.8,332.2,434.1,348.6Z" transform="translate(-58 -36)"/>
    <path class="b" d="M308,206.5h0A79.5,79.5,0,1,0,387.5,286h0A79.5,79.5,0,0,0,308,206.5ZM359.6,286A51.6,51.6,0,0,1,308,337.6h0A51.6,51.6,0,1,1,359.6,286Z" transform="translate(-58 -36)"/>
    <circle class="b" cx="332.7" cy="167.3" r="18.6"/>
  </g>
  <rect class="c" x="500" width="500" height="500"/>
  <g>
    <polygon class="d" points="750 95.1 750 95.1 750 95.1 750 95.1"/>
    <path class="d" d="M961.9,222.1c-.8-16.5-3.4-27.7-7.2-37.6a79.2,79.2,0,0,0-45.3-45.3c-9.9-3.8-21.1-6.4-37.6-7.2s-21.8-.9-63.9-.9-47.3.2-63.9.9-27.7,3.4-37.6,7.2a79.2,79.2,0,0,0-45.3,45.3c-3.8,9.9-6.4,21.1-7.2,37.6s-.9,21.8-.9,63.9.2,47.3.9,63.9,3.4,27.7,7.2,37.6a79.2,79.2,0,0,0,45.3,45.3c9.9,3.8,21.1,6.4,37.6,7.2s21.8.9,63.9.9,47.3-.2,63.9-.9,27.7-3.4,37.6-7.2a79.2,79.2,0,0,0,45.3-45.3c3.8-9.9,6.4-21.1,7.2-37.6s.9-21.8.9-63.9S962.7,238.7,961.9,222.1ZM934.1,348.6c-.7,15.1-3.2,23.3-5.3,28.8a51.3,51.3,0,0,1-29.4,29.4c-5.5,2.1-13.7,4.6-28.8,5.3s-21.2.9-62.6.9-46.3-.2-62.6-.9-23.3-3.2-28.8-5.3a51.3,51.3,0,0,1-29.4-29.4c-2.1-5.5-4.6-13.7-5.3-28.8s-.9-21.2-.9-62.6.2-46.3.9-62.6,3.2-23.3,5.3-28.8a51.3,51.3,0,0,1,29.4-29.4c5.5-2.1,13.7-4.6,28.8-5.3s21.2-.9,62.6-.9h0c41.4,0,46.3.2,62.6.9s23.3,3.2,28.8,5.3a51.3,51.3,0,0,1,29.4,29.4c2.1,5.5,4.6,13.7,5.3,28.8s.9,21.2.9,62.6S934.8,332.2,934.1,348.6Z" transform="translate(-58 -36)"/>
    <path class="d" d="M808,206.5h0A79.5,79.5,0,1,0,887.5,286h0A79.5,79.5,0,0,0,808,206.5ZM859.6,286A51.6,51.6,0,0,1,808,337.6h0A51.6,51.6,0,1,1,859.6,286Z" transform="translate(-58 -36)"/>
    <circle class="d" cx="832.7" cy="167.3" r="18.6"/>
  </g>
</svg>
