<svg xmlns="http://www.w3.org/2000/svg" viewBox="0 0 1000 500">
  <defs>
    <style>
      .a {
        fill: #ff5419;
      }

      .b {
        fill: #fff;
      }

      .c {
        fill: #73737f;
      }

      .d {
        fill: #d6d6de;
      }
    </style>
  </defs>
  <title>btn_sc_sprite</title>
  <rect class="a" width="500" height="500"/>
  <g>
    <path class="b" d="M487.2,317.2c-5.9-21.9-24.6-36.4-47.2-36.7H427.5c1.8-12.4,1.4-24.2-2.6-35.6-10-28.9-29.8-46.6-60.3-51.4l-1.7-.6H348.2l-9.2,2a70.1,70.1,0,0,0-35.8,21.6,8.9,8.9,0,0,0-1.9,5.5q-.1,79.3-.1,158.5H446.5c2.3-.6,4.7-1.1,7-1.8,19.4-6.2,30.7-19.7,34.8-39.4.1-.9.5-1.8.7-2.7V324.2C488.4,321.9,487.9,319.6,487.2,317.2Z" transform="translate(-52 -38)"/>
    <path class="b" d="M276.3,238.7a53.9,53.9,0,0,0-21.9-7.6V380.7h23.5V293.5c0-16.9,0-33.9-.1-50.9C277.8,241.3,277.2,239.3,276.3,238.7Z" transform="translate(-52 -38)"/>
    <path class="b" d="M207.4,249.6q.1,65.6.1,131.1h23.5V233a62.4,62.4,0,0,0-20.3,10.3A7,7,0,0,0,207.4,249.6Z" transform="translate(-52 -38)"/>
    <rect class="b" x="108.5" y="242.8" width="23.5" height="99.93"/>
    <path class="b" d="M115.1,318.3l-1.5,5.9h0v12.5a13.7,13.7,0,0,1,.7,2.1,49.6,49.6,0,0,0,19.3,32.1c1,.7,2.1,1.3,3.2,2.1V288.1C125.5,295.7,118.4,305.6,115.1,318.3Z" transform="translate(-52 -38)"/>
  </g>
  <rect class="c" x="500" width="500" height="500"/>
  <g>
    <path class="d" d="M987.2,317.2c-5.9-21.9-24.6-36.4-47.2-36.7H927.5c1.8-12.4,1.4-24.2-2.6-35.6-10-28.9-29.8-46.6-60.3-51.4l-1.7-.6H848.2l-9.2,2a70.1,70.1,0,0,0-35.8,21.6,8.9,8.9,0,0,0-1.9,5.5q-.1,79.3-.1,158.5H946.5c2.3-.6,4.7-1.1,7-1.8,19.4-6.2,30.7-19.7,34.8-39.4.1-.9.5-1.8.7-2.7V324.2C988.4,321.9,987.9,319.6,987.2,317.2Z" transform="translate(-52 -38)"/>
    <path class="d" d="M776.3,238.7a53.9,53.9,0,0,0-21.9-7.6V380.7h23.5V293.5c0-16.9,0-33.9-.1-50.9C777.8,241.3,777.2,239.3,776.3,238.7Z" transform="translate(-52 -38)"/>
    <path class="d" d="M707.4,249.6q.1,65.6.1,131.1h23.5V233a62.4,62.4,0,0,0-20.3,10.3A7,7,0,0,0,707.4,249.6Z" transform="translate(-52 -38)"/>
    <rect class="d" x="608.5" y="242.8" width="23.5" height="99.93"/>
    <path class="d" d="M615.1,318.3l-1.5,5.9h0v12.5a13.7,13.7,0,0,1,.7,2.1,49.6,49.6,0,0,0,19.3,32.1c1,.7,2.1,1.3,3.2,2.1V288.1C625.5,295.7,618.4,305.6,615.1,318.3Z" transform="translate(-52 -38)"/>
  </g>
</svg>
