<svg xmlns="http://www.w3.org/2000/svg" viewBox="0 0 490.4 490.4">
  <defs>
    <style>
      .a {
        fill: #9e9ea9;
      }

      .b {
        fill: #73737f;
      }
    </style>
  </defs>
  <title>forbidden-eye</title>
  <path class="a" d="M245.2,490.4A245.2,245.2,0,0,0,418.6,71.8,245.2,245.2,0,0,0,71.8,418.6,243.6,243.6,0,0,0,245.2,490.4Zm156.1-89.1a220.8,220.8,0,0,1-303.2,8.4L409.7,98.1a220.8,220.8,0,0,1-8.4,303.2ZM89.1,89.1a220.8,220.8,0,0,1,303.2-8.4L80.7,392.3A220.8,220.8,0,0,1,89.1,89.1Z"/>
  <g>
    <path class="b" d="M235.2,97.8h20a15.8,15.8,0,0,0,2.6.6c16.3,1.4,31.9,5.6,47,11.7,31.5,12.7,58.9,31.7,83.1,55.2,22.7,21.9,43.9,45,53.8,76V249a103.7,103.7,0,0,1-13.5,28.5c-20.7,31.2-47.1,56.7-77.8,77.9-21.7,15-45,26.7-70.8,32.8-8,1.9-16.3,2.9-24.4,4.4h-20a11.8,11.8,0,0,0-2.2-.6c-22.5-1.9-43.4-9-63.4-19-28-14-52.7-32.7-74.5-55.1C75.6,297.7,57.3,276.6,48.7,249v-7.7A105.1,105.1,0,0,1,63,211.5c20.1-29.9,45.4-54.5,74.8-75.1,23.3-16.4,48.4-29,76.4-35.1C221.1,99.8,228.2,99,235.2,97.8Zm9.9,49.2a98.2,98.2,0,1,0,98.3,98.3A98.2,98.2,0,0,0,245.1,147Z"/>
    <path class="b" d="M196.2,245.5c29.9-1.6,48.4-24.1,49.2-48.9,16.9-2.2,44.6,12.5,48.7,42.7,3.7,27.2-18,53.3-46,54.9S195.6,272.9,196.2,245.5Z"/>
  </g>
</svg>
