<svg xmlns="http://www.w3.org/2000/svg" viewBox="0 0 626.2 626.2">
  <title>resize_off</title>
  <polygon points="626.2 382.1 382.1 382.1 382.1 626.2 486.3 522 590.3 626.1 625.7 590.7 521.6 486.7 626.2 382.1" fill="#fff"/>
  <polygon points="244.1 382.1 0 382.1 104.6 486.7 0.5 590.7 35.9 626.1 139.9 522 244.1 626.2 244.1 382.1" fill="#fff"/>
  <polygon points="521.6 139.6 625.7 35.5 590.3 0.1 486.3 104.2 382.1 0 382.1 244.1 626.2 244.1 521.6 139.6" fill="#fff"/>
  <polygon points="139.9 104.2 35.9 0.1 0.5 35.5 104.6 139.6 0 244.1 244.1 244.1 244.1 0 139.9 104.2" fill="#fff"/>
</svg>
