<svg xmlns="http://www.w3.org/2000/svg" viewBox="0 0 626 626">
  <title>resize_on</title>
  <polygon points="244.1 0 0 0 0 244.1 104.2 139.9 208.3 244 243.6 208.6 139.5 104.6 244.1 0" fill="#fff"/>
  <polygon points="626 0 381.9 0 486.5 104.6 382.4 208.6 417.8 244 521.8 139.9 626 244.1 626 0" fill="#fff"/>
  <polygon points="139.5 521.4 243.6 417.4 208.3 382 104.2 486.1 0 381.9 0 626 244.1 626 139.5 521.4" fill="#fff"/>
  <polygon points="521.8 486.1 417.8 382 382.4 417.4 486.5 521.4 381.9 626 626 626 626 381.9 521.8 486.1" fill="#fff"/>
</svg>
