<svg xmlns="http://www.w3.org/2000/svg" viewBox="0 0 309.7 309.8">
  <defs>
    <style>
      .a {
        fill: #d6d6de;
      }
    </style>
  </defs>
  <title>src_insta</title>
  <path class="a" d="M213.9,83.9c41.4,0,46.3.2,62.6.9s23.3,3.2,28.8,5.3a51.3,51.3,0,0,1,29.4,29.4c2.1,5.5,4.6,13.7,5.3,28.8s.9,21.2.9,62.6-.2,46.2-.9,62.6-3.2,23.3-5.3,28.8a51.3,51.3,0,0,1-29.4,29.4c-5.5,2.1-13.7,4.6-28.8,5.3s-21.2.9-62.6.9-46.3-.2-62.6-.9-23.3-3.2-28.8-5.3a51.3,51.3,0,0,1-29.4-29.4c-2.1-5.5-4.6-13.7-5.3-28.8s-.9-21.2-.9-62.6.2-46.3.9-62.6S91,125,93.1,119.5a51.3,51.3,0,0,1,29.4-29.4c5.5-2.1,13.7-4.6,28.8-5.3s21.2-.9,62.6-.9m0-27.9c-42.1,0-47.3.2-63.9.9s-27.7,3.4-37.6,7.2a79.1,79.1,0,0,0-45.3,45.3c-3.8,9.9-6.4,21.1-7.2,37.6s-.9,21.8-.9,63.9.2,47.3.9,63.9,3.4,27.7,7.2,37.6a79.2,79.2,0,0,0,45.3,45.3c9.9,3.8,21.1,6.4,37.6,7.2s21.8.9,63.9.9,47.3-.2,63.9-.9,27.7-3.4,37.6-7.2a79.2,79.2,0,0,0,45.3-45.3c3.8-9.9,6.4-21.1,7.2-37.6s.9-21.8.9-63.9-.2-47.3-.9-63.9-3.4-27.7-7.2-37.6a79.2,79.2,0,0,0-45.3-45.3c-9.9-3.8-21.1-6.4-37.6-7.2s-21.8-.9-63.9-.9h0Zm0,75.3a79.5,79.5,0,1,0,79.5,79.5h0a79.5,79.5,0,0,0-79.5-79.5h0Zm0,131.2a51.6,51.6,0,1,1,51.6-51.6h0a51.6,51.6,0,0,1-51.6,51.6ZM315.1,128.2a18.6,18.6,0,1,1-18.6-18.6A18.6,18.6,0,0,1,315.1,128.2Z" transform="translate(-59 -56)"/>
</svg>
