<svg xmlns="http://www.w3.org/2000/svg" viewBox="0 0 512 256">
  <defs>
    <style>
      .a {
        fill: #d6d6de;
      }
    </style>
  </defs>
  <title>src_sc</title>
  <g>
    <path class="a" d="M748,257h20a13.2,13.2,0,0,0,2.3.8c41.7,6.6,68.6,30.7,82.3,70.1,5.4,15.5,5.9,31.6,3.5,48.5h17.1c30.9.4,56.4,20.2,64.4,50,.9,3.2,1.6,6.4,2.4,9.5v17c-.3,1.2-.8,2.5-1,3.7-5.6,26.9-21,45.2-47.5,53.7-3.1,1-6.3,1.7-9.5,2.5H684q0-108.1.1-216.2a12.1,12.1,0,0,1,2.6-7.5c13.3-14.6,29.5-24.7,48.8-29.4Z" transform="translate(-428 -257)"/>
    <path class="a" d="M620,513V309a73.5,73.5,0,0,1,29.9,10.3c1.3.8,2,3.6,2,5.4.1,23.1.1,46.3.1,69.4q0,59.4,0,118.9Z" transform="translate(-428 -257)"/>
    <path class="a" d="M556,513q0-89.4-.1-178.8a9.6,9.6,0,0,1,4.4-8.7,85.1,85.1,0,0,1,27.7-14V513Z" transform="translate(-428 -257)"/>
    <path class="a" d="M492,513V376.7h32V513Z" transform="translate(-428 -257)"/>
    <path class="a" d="M428,436l2-8.1c4.5-17.3,14.2-30.8,29.6-41.2V502.5c-1.6-1.1-3.1-1.9-4.4-2.9a67.7,67.7,0,0,1-26.3-43.8,18.7,18.7,0,0,0-.9-2.8Z" transform="translate(-428 -257)"/>
  </g>
</svg>
