<svg xmlns="http://www.w3.org/2000/svg" viewBox="0 0 512 384">
  <defs>
    <style>
      .a {
        fill: #d6d6de;
      }
    </style>
  </defs>
  <title>ico_mail</title>
  <g>
    <path class="a" d="M490,384H22c1.3-1.7,2.4-3.5,3.8-5.1L166.5,221.4,194,190.8,256,245l62-54.2,2.2,2.3L469.9,360.6C476.8,368.3,483.3,376.2,490,384Z"/>
    <path class="a" d="M25,0H487a72.7,72.7,0,0,1-5.5,5.6L283.1,179.3l-27,23.5-2.8-2.2L28.6,3.9A45,45,0,0,1,25,0Z"/>
    <path class="a" d="M512,360l-69-77L344.8,173.1l-2.8-3.3L512,21Z"/>
    <path class="a" d="M0,21,170.1,169.8l-23.8,26.7L1.5,358.7,0,360Z"/>
  </g>
</svg>
